<?xml version="1.0" encoding="utf-8"?>
<!-- Generator: Adobe Illustrator 24.3.0, SVG Export Plug-In . SVG Version: 6.00 Build 0)  -->
<svg version="1.0" id="Layer_1" xmlns="http://www.w3.org/2000/svg" xmlns:xlink="http://www.w3.org/1999/xlink" x="0px" y="0px"
	 viewBox="0 0 1366 768" style="enable-background:new 0 0 1366 768;" xml:space="preserve">
<style type="text/css">
	.st0{fill:#FFFFFF;}
</style>
<g>
	<path d="M719.5,597.5c-63,0-122.3-24.5-166.9-69.1c-44.6-44.6-69.1-103.8-69.1-166.9c0-63,24.5-122.3,69.1-166.9
		c44.6-44.6,103.8-69.1,166.9-69.1c63,0,122.3,24.5,166.9,69.1c44.6,44.6,69.1,103.8,69.1,166.9c0,63-24.5,122.3-69.1,166.9
		C841.8,573,782.5,597.5,719.5,597.5z"/>
	<path d="M719.5,126c31.8,0,62.6,6.2,91.7,18.5c28,11.9,53.2,28.8,74.9,50.5c21.6,21.6,38.6,46.8,50.5,74.9
		c12.3,29,18.5,59.9,18.5,91.7s-6.2,62.6-18.5,91.7c-11.9,28-28.8,53.2-50.5,74.9c-21.6,21.6-46.8,38.6-74.9,50.5
		c-29,12.3-59.9,18.5-91.7,18.5s-62.6-6.2-91.7-18.5c-28-11.9-53.2-28.8-74.9-50.5c-21.6-21.6-38.6-46.8-50.5-74.9
		c-12.3-29-18.5-59.9-18.5-91.7s6.2-62.6,18.5-91.7c11.9-28,28.8-53.2,50.5-74.9c21.6-21.6,46.8-38.6,74.9-50.5
		C656.9,132.2,687.7,126,719.5,126 M719.5,125C588.9,125,483,230.9,483,361.5S588.9,598,719.5,598S956,492.1,956,361.5
		S850.1,125,719.5,125L719.5,125z"/>
</g>
<g>
	<path class="st0" d="M585.1,366l-10,30.2h-12.8l32.6-96.1h15l32.8,96.1h-13.3L619.1,366H585.1z M616.6,356.3l-9.4-27.6
		c-2.1-6.3-3.6-12-5-17.5h-0.3c-1.4,5.7-3,11.5-4.8,17.4l-9.4,27.8H616.6z"/>
	<path class="st0" d="M650.5,388.9l31.2-40.6c3-3.7,5.8-7,9-10.7v-0.3h-37.3v-10.1h52.6l-0.1,7.8l-30.8,40
		c-2.9,3.8-5.7,7.3-8.8,10.8v0.3h40.3v10h-56V388.9z"/>
	<path class="st0" d="M777,377.4c0,7.1,0.1,13.4,0.6,18.8h-11.1l-0.7-11.3h-0.3c-3.3,5.6-10.5,12.8-22.8,12.8
		c-10.8,0-23.8-6-23.8-30.2v-40.3h12.5v38.2c0,13.1,4,21.9,15.4,21.9c8.4,0,14.3-5.8,16.5-11.4c0.7-1.9,1.1-4.1,1.1-6.4v-42.3H777
		V377.4z"/>
	<path class="st0" d="M797.8,348.7c0-8.1-0.1-15.1-0.6-21.5h11l0.4,13.5h0.6c3.1-9.3,10.7-15.1,19.1-15.1c1.4,0,2.4,0.1,3.6,0.4
		v11.8c-1.3-0.3-2.6-0.4-4.3-0.4c-8.8,0-15.1,6.7-16.8,16.1c-0.3,1.7-0.6,3.7-0.6,5.8v36.8h-12.4V348.7z"/>
	<path class="st0" d="M881.9,396.2l-1-8.7h-0.4c-3.8,5.4-11.3,10.3-21.1,10.3c-14,0-21.1-9.8-21.1-19.8c0-16.7,14.8-25.8,41.5-25.7
		v-1.4c0-5.7-1.6-16-15.7-16c-6.4,0-13.1,2-18,5.1l-2.8-8.3c5.7-3.7,14-6.1,22.7-6.1c21.1,0,26.2,14.4,26.2,28.2v25.8
		c0,6,0.3,11.8,1.1,16.5H881.9z M880.1,361c-13.7-0.3-29.2,2.1-29.2,15.5c0,8.1,5.4,12,11.8,12c9,0,14.7-5.7,16.7-11.5
		c0.4-1.3,0.7-2.7,0.7-4V361z"/>
</g>
<g>
</g>
<g>
</g>
<g>
</g>
<g>
</g>
<g>
</g>
<g>
</g>
<g>
</g>
<g>
</g>
<g>
</g>
<g>
</g>
<g>
</g>
<g>
</g>
<g>
</g>
<g>
</g>
<g>
</g>
</svg>
