<?xml version="1.0" encoding="utf-8"?>
<!-- Generator: Adobe Illustrator 24.3.0, SVG Export Plug-In . SVG Version: 6.00 Build 0)  -->
<svg version="1.0" id="Layer_1" xmlns="http://www.w3.org/2000/svg" xmlns:xlink="http://www.w3.org/1999/xlink" x="0px" y="0px"
	 viewBox="0 0 1366 768" style="enable-background:new 0 0 1366 768;" xml:space="preserve">
<style type="text/css">
	.st0{fill:#FFFFFF;}
</style>
<g>
	<path d="M719.5,597.5c-63,0-122.3-24.5-166.9-69.1c-44.6-44.6-69.1-103.8-69.1-166.9c0-63,24.5-122.3,69.1-166.9
		c44.6-44.6,103.8-69.1,166.9-69.1c63,0,122.3,24.5,166.9,69.1c44.6,44.6,69.1,103.8,69.1,166.9c0,63-24.5,122.3-69.1,166.9
		C841.8,573,782.5,597.5,719.5,597.5z"/>
	<path d="M719.5,126c31.8,0,62.6,6.2,91.7,18.5c28,11.9,53.2,28.8,74.9,50.5c21.6,21.6,38.6,46.8,50.5,74.9
		c12.3,29,18.5,59.9,18.5,91.7s-6.2,62.6-18.5,91.7c-11.9,28-28.8,53.2-50.5,74.9c-21.6,21.6-46.8,38.6-74.9,50.5
		c-29,12.3-59.9,18.5-91.7,18.5s-62.6-6.2-91.7-18.5c-28-11.9-53.2-28.8-74.9-50.5c-21.6-21.6-38.6-46.8-50.5-74.9
		c-12.3-29-18.5-59.9-18.5-91.7s6.2-62.6,18.5-91.7c11.9-28,28.8-53.2,50.5-74.9c21.6-21.6,46.8-38.6,74.9-50.5
		C656.9,132.2,687.7,126,719.5,126 M719.5,125C588.9,125,483,230.9,483,361.5S588.9,598,719.5,598S956,492.1,956,361.5
		S850.1,125,719.5,125L719.5,125z"/>
</g>
<g>
	<path class="st0" d="M605.5,300.4c5.4-1.1,14-2,22.7-2c12.4,0,20.4,2.1,26.4,7c5,3.7,8,9.4,8,17c0,9.3-6.1,17.4-16.2,21.1v0.3
		c9.1,2.3,19.8,9.8,19.8,24.1c0,8.3-3.3,14.5-8.1,19.2c-6.7,6.1-17.5,9-33.2,9c-8.6,0-15.1-0.6-19.2-1.1V300.4z M617.9,339.8h11.3
		c13.1,0,20.8-6.8,20.8-16.1c0-11.3-8.6-15.7-21.1-15.7c-5.7,0-9,0.4-11,0.9V339.8z M617.9,385.8c2.4,0.4,6,0.6,10.4,0.6
		c12.8,0,24.7-4.7,24.7-18.7c0-13.1-11.3-18.5-24.8-18.5h-10.3V385.8z"/>
	<path class="st0" d="M682.3,294h12.5v101.2h-12.5V294z"/>
	<path class="st0" d="M729.9,306.8c0.1,4.3-3,7.7-8,7.7c-4.4,0-7.6-3.4-7.6-7.7c0-4.4,3.3-7.8,7.8-7.8
		C726.9,299,729.9,302.4,729.9,306.8z M716,395.2v-69h12.5v69H716z"/>
	<path class="st0" d="M747.6,382.4c3.7,2.4,10.3,5,16.5,5c9.1,0,13.4-4.6,13.4-10.3c0-6-3.6-9.3-12.8-12.7
		c-12.4-4.4-18.2-11.3-18.2-19.5c0-11.1,9-20.2,23.8-20.2c7,0,13.1,2,17,4.3l-3.1,9.1c-2.7-1.7-7.7-4-14.1-4
		c-7.4,0-11.5,4.3-11.5,9.4c0,5.7,4.1,8.3,13.1,11.7c12,4.6,18.1,10.5,18.1,20.8c0,12.1-9.4,20.7-25.8,20.7
		c-7.6,0-14.5-1.9-19.4-4.7L747.6,382.4z"/>
	<path class="st0" d="M804,382.4c3.7,2.4,10.3,5,16.5,5c9.1,0,13.4-4.6,13.4-10.3c0-6-3.6-9.3-12.8-12.7
		c-12.4-4.4-18.2-11.3-18.2-19.5c0-11.1,9-20.2,23.8-20.2c7,0,13.1,2,17,4.3l-3.1,9.1c-2.7-1.7-7.7-4-14.1-4
		c-7.4,0-11.5,4.3-11.5,9.4c0,5.7,4.1,8.3,13.1,11.7c12,4.6,18.1,10.5,18.1,20.8c0,12.1-9.4,20.7-25.8,20.7
		c-7.6,0-14.5-1.9-19.4-4.7L804,382.4z"/>
</g>
<g>
</g>
<g>
</g>
<g>
</g>
<g>
</g>
<g>
</g>
<g>
</g>
<g>
</g>
<g>
</g>
<g>
</g>
<g>
</g>
<g>
</g>
<g>
</g>
<g>
</g>
<g>
</g>
<g>
</g>
</svg>
