<svg id="Layer_1" data-name="Layer 1" xmlns="http://www.w3.org/2000/svg" viewBox="0 0 473 473"><defs><style>.cls-1{fill:#fff;}</style></defs><path d="M719.5,597.5a235.92,235.92,0,1,1,166.9-69.1A234.49,234.49,0,0,1,719.5,597.5Z" transform="translate(-483 -125)"/><path d="M719.5,126a234.78,234.78,0,1,1-91.7,18.5A234,234,0,0,1,719.5,126m0-1C588.9,125,483,230.9,483,361.5S588.9,598,719.5,598,956,492.1,956,361.5,850.1,125,719.5,125Z" transform="translate(-483 -125)"/><path class="cls-1" d="M691.13,393.71c-4.09,2-12.27,4.08-22.75,4.08-24.28,0-42.55-15.33-42.55-43.57,0-27,18.27-45.24,45-45.24,10.74,0,17.51,2.3,20.45,3.83l-2.69,9.08a40.38,40.38,0,0,0-17.38-3.58c-20.19,0-33.61,12.9-33.61,35.52,0,21.09,12.15,34.64,33.1,34.64,6.78,0,13.68-1.41,18.15-3.58Z" transform="translate(-483 -125)"/><path class="cls-1" d="M716.82,317.29c.13,3.83-2.69,6.9-7.16,6.9a6.69,6.69,0,0,1-6.77-6.9,6.85,6.85,0,0,1,7-7A6.67,6.67,0,0,1,716.82,317.29Zm-12.53,79.23V334.67h11.25v61.85Z" transform="translate(-483 -125)"/><path class="cls-1" d="M747.74,316.9v17.77h16.1v8.56h-16.1v33.35c0,7.67,2.18,12,8.44,12a25.12,25.12,0,0,0,6.51-.76l.52,8.43a27.48,27.48,0,0,1-10,1.53c-5.24,0-9.46-1.66-12.14-4.72-3.2-3.33-4.35-8.82-4.35-16.11V343.23h-9.58v-8.56h9.58V319.84Z" transform="translate(-483 -125)"/><path class="cls-1" d="M781.73,334.67l13.55,36.54c1.41,4.09,2.94,9,4,12.66h.26c1.15-3.71,2.43-8.44,4-12.91l12.27-36.29h11.88l-16.87,44.08c-8,21.22-13.54,32.08-21.21,38.72a30.43,30.43,0,0,1-13.8,7.29l-2.81-9.46a29.75,29.75,0,0,0,9.84-5.49,34.15,34.15,0,0,0,9.45-12.53,8.12,8.12,0,0,0,.9-2.68,9.9,9.9,0,0,0-.77-2.94l-22.87-57Z" transform="translate(-483 -125)"/></svg>