<svg id="Layer_1" data-name="Layer 1" xmlns="http://www.w3.org/2000/svg" viewBox="0 0 473 473"><defs><style>.cls-1{fill:#fff;}</style></defs><path d="M719.5,597.5a235.92,235.92,0,1,1,166.9-69.1A234.49,234.49,0,0,1,719.5,597.5Z" transform="translate(-483 -125)"/><path d="M719.5,126a234.78,234.78,0,1,1-91.7,18.5A234,234,0,0,1,719.5,126m0-1C588.9,125,483,230.9,483,361.5S588.9,598,719.5,598,956,492.1,956,361.5,850.1,125,719.5,125Z" transform="translate(-483 -125)"/><path class="cls-1" d="M620.68,393.71c-4.09,2-12.27,4.08-22.75,4.08-24.28,0-42.55-15.33-42.55-43.57,0-27,18.27-45.24,45-45.24,10.73,0,17.51,2.3,20.45,3.83l-2.69,9.08a40.38,40.38,0,0,0-17.38-3.58c-20.19,0-33.61,12.9-33.61,35.52,0,21.09,12.14,34.64,33.1,34.64,6.77,0,13.68-1.41,18.15-3.58Z" transform="translate(-483 -125)"/><path class="cls-1" d="M633.84,354c0-7.28-.13-13.54-.51-19.29h9.84l.38,12.14h.51c2.82-8.31,9.59-13.55,17.13-13.55a12.35,12.35,0,0,1,3.19.38v10.61a16.65,16.65,0,0,0-3.83-.38c-7.92,0-13.55,6-15.08,14.44a32.2,32.2,0,0,0-.51,5.24v33H633.84Z" transform="translate(-483 -125)"/><path class="cls-1" d="M730.33,365.08c0,22.87-15.85,32.84-30.8,32.84-16.74,0-29.65-12.27-29.65-31.82,0-20.7,13.55-32.84,30.67-32.84C718.31,333.26,730.33,346.17,730.33,365.08Zm-49.08.64c0,13.54,7.8,23.77,18.79,23.77,10.73,0,18.79-10.1,18.79-24,0-10.48-5.24-23.77-18.54-23.77S681.25,354,681.25,365.72Z" transform="translate(-483 -125)"/><path class="cls-1" d="M748.09,334.67l8.18,31.43c1.79,6.9,3.45,13.29,4.6,19.68h.38c1.41-6.26,3.46-12.9,5.5-19.55l10.09-31.56h9.46l9.59,30.92c2.3,7.41,4.09,13.93,5.49,20.19h.38a188.82,188.82,0,0,1,4.73-20.06l8.82-31.05h11.12l-19.94,61.85H796.27L786.81,367a206.11,206.11,0,0,1-5.49-20.32h-.26a182.48,182.48,0,0,1-5.62,20.44l-10,29.4H755.25l-18.66-61.85Z" transform="translate(-483 -125)"/><path class="cls-1" d="M889.82,305.78v74.76c0,5.5.12,11.76.51,16h-10.1l-.51-10.74h-.26c-3.45,6.9-11,12.14-21.08,12.14-15,0-26.45-12.65-26.45-31.43-.13-20.58,12.65-33.23,27.73-33.23,9.45,0,15.84,4.47,18.65,9.46h.26V305.78Zm-11.25,54.06a20,20,0,0,0-.51-4.73,16.54,16.54,0,0,0-16.23-13c-11.63,0-18.53,10.22-18.53,23.89,0,12.53,6.13,22.88,18.27,22.88,7.54,0,14.44-5,16.49-13.42a19.68,19.68,0,0,0,.51-4.85Z" transform="translate(-483 -125)"/></svg>