<?xml version="1.0" encoding="utf-8"?>
<!-- Generator: Adobe Illustrator 24.3.0, SVG Export Plug-In . SVG Version: 6.00 Build 0)  -->
<svg version="1.0" id="Layer_1" xmlns="http://www.w3.org/2000/svg" xmlns:xlink="http://www.w3.org/1999/xlink" x="0px" y="0px"
	 viewBox="0 0 1366 768" style="enable-background:new 0 0 1366 768;" xml:space="preserve">
<style type="text/css">
	.st0{fill:#FFFFFF;}
</style>
<g>
	<path d="M719.5,597.5c-63,0-122.3-24.5-166.9-69.1c-44.6-44.6-69.1-103.8-69.1-166.9c0-63,24.5-122.3,69.1-166.9
		c44.6-44.6,103.8-69.1,166.9-69.1c63,0,122.3,24.5,166.9,69.1c44.6,44.6,69.1,103.8,69.1,166.9c0,63-24.5,122.3-69.1,166.9
		C841.8,573,782.5,597.5,719.5,597.5z"/>
	<path d="M719.5,126c31.8,0,62.6,6.2,91.7,18.5c28,11.9,53.2,28.8,74.9,50.5c21.6,21.6,38.6,46.8,50.5,74.9
		c12.3,29,18.5,59.9,18.5,91.7s-6.2,62.6-18.5,91.7c-11.9,28-28.8,53.2-50.5,74.9c-21.6,21.6-46.8,38.6-74.9,50.5
		c-29,12.3-59.9,18.5-91.7,18.5s-62.6-6.2-91.7-18.5c-28-11.9-53.2-28.8-74.9-50.5c-21.6-21.6-38.6-46.8-50.5-74.9
		c-12.3-29-18.5-59.9-18.5-91.7s6.2-62.6,18.5-91.7c11.9-28,28.8-53.2,50.5-74.9c21.6-21.6,46.8-38.6,74.9-50.5
		C656.9,132.2,687.7,126,719.5,126 M719.5,125C588.9,125,483,230.9,483,361.5S588.9,598,719.5,598S956,492.1,956,361.5
		S850.1,125,719.5,125L719.5,125z"/>
</g>
<g>
	<path class="st0" d="M662.7,394.1c-4.6,2.3-13.7,4.6-25.4,4.6c-27.1,0-47.5-17.1-47.5-48.6c0-30.1,20.4-50.5,50.2-50.5
		c12,0,19.5,2.6,22.8,4.3l-3,10.1c-4.7-2.3-11.4-4-19.4-4c-22.5,0-37.5,14.4-37.5,39.6c0,23.5,13.5,38.6,36.9,38.6
		c7.6,0,15.2-1.6,20.2-4L662.7,394.1z"/>
	<path class="st0" d="M733.8,378.4c0,7.1,0.1,13.4,0.6,18.8h-11.1l-0.7-11.3h-0.3c-3.3,5.6-10.5,12.8-22.8,12.8
		c-10.8,0-23.8-6-23.8-30.2v-40.3h12.5v38.2c0,13.1,4,21.9,15.4,21.9c8.4,0,14.3-5.8,16.5-11.4c0.7-1.9,1.1-4.1,1.1-6.4v-42.3h12.5
		V378.4z"/>
	<path class="st0" d="M814.1,296v83.4c0,6.1,0.1,13.1,0.6,17.8h-11.3l-0.6-12h-0.3c-3.8,7.7-12.3,13.5-23.5,13.5
		c-16.7,0-29.5-14.1-29.5-35.1c-0.1-22.9,14.1-37.1,30.9-37.1c10.5,0,17.7,5,20.8,10.5h0.3V296H814.1z M801.6,356.3
		c0-1.6-0.1-3.7-0.6-5.3c-1.9-8-8.7-14.5-18.1-14.5c-13,0-20.7,11.4-20.7,26.7c0,14,6.8,25.5,20.4,25.5c8.4,0,16.1-5.6,18.4-15
		c0.4-1.7,0.6-3.4,0.6-5.4V356.3z"/>
	<path class="st0" d="M848.9,308.8c0.1,4.3-3,7.7-8,7.7c-4.4,0-7.6-3.4-7.6-7.7c0-4.4,3.3-7.8,7.8-7.8
		C845.9,301,848.9,304.4,848.9,308.8z M834.9,397.2v-69h12.5v69H834.9z"/>
</g>
<g>
</g>
<g>
</g>
<g>
</g>
<g>
</g>
<g>
</g>
<g>
</g>
<g>
</g>
<g>
</g>
<g>
</g>
<g>
</g>
<g>
</g>
<g>
</g>
<g>
</g>
<g>
</g>
<g>
</g>
</svg>
