<svg id="Layer_1" data-name="Layer 1" xmlns="http://www.w3.org/2000/svg" viewBox="0 0 473 473"><defs><style>.cls-1{fill:#fff;}</style></defs><path d="M719.5,597.5a235.92,235.92,0,1,1,166.9-69.1A234.49,234.49,0,0,1,719.5,597.5Z" transform="translate(-483 -125)"/><path d="M719.5,126a234.78,234.78,0,1,1-91.7,18.5A234,234,0,0,1,719.5,126m0-1C588.9,125,483,230.9,483,361.5S588.9,598,719.5,598,956,492.1,956,361.5,850.1,125,719.5,125Z" transform="translate(-483 -125)"/><path class="cls-1" d="M640.65,311.66H687V321H651.77v28.63h32.59v9.2H651.77v39H640.65Z" transform="translate(-483 -125)"/><path class="cls-1" d="M711.71,318.56c.12,3.84-2.69,6.9-7.16,6.9a6.68,6.68,0,0,1-6.77-6.9,6.86,6.86,0,0,1,7-7A6.68,6.68,0,0,1,711.71,318.56Zm-12.53,79.23V335.94h11.25v61.85Z" transform="translate(-483 -125)"/><path class="cls-1" d="M729.09,355.24c0-7.28-.13-13.55-.52-19.3h9.84l.39,12.14h.51c2.81-8.3,9.58-13.54,17.12-13.54a12,12,0,0,1,3.2.38v10.61a16.63,16.63,0,0,0-3.84-.39c-7.92,0-13.54,6-15.08,14.44a32.43,32.43,0,0,0-.51,5.24v33H729.09Z" transform="translate(-483 -125)"/><path class="cls-1" d="M775.86,368.91c.26,15.21,10,21.47,21.21,21.47,8,0,12.91-1.4,17.13-3.19l1.91,8.05c-4,1.79-10.73,3.83-20.57,3.83-19,0-30.42-12.52-30.42-31.18s11-33.35,29-33.35c20.2,0,25.56,17.76,25.56,29.13a42.13,42.13,0,0,1-.38,5.24Zm33-8.05c.13-7.15-2.94-18.27-15.59-18.27-11.37,0-16.36,10.48-17.25,18.27Z" transform="translate(-483 -125)"/></svg>