<?xml version="1.0" encoding="utf-8"?>
<!-- Generator: Adobe Illustrator 24.3.0, SVG Export Plug-In . SVG Version: 6.00 Build 0)  -->
<svg version="1.0" id="Layer_1" xmlns="http://www.w3.org/2000/svg" xmlns:xlink="http://www.w3.org/1999/xlink" x="0px" y="0px"
	 viewBox="0 0 1366 768" style="enable-background:new 0 0 1366 768;" xml:space="preserve">
<style type="text/css">
	.st0{fill:#FFFFFF;}
</style>
<g>
	<path d="M719.5,597.5c-63,0-122.3-24.5-166.9-69.1c-44.6-44.6-69.1-103.8-69.1-166.9c0-63,24.5-122.3,69.1-166.9
		c44.6-44.6,103.8-69.1,166.9-69.1c63,0,122.3,24.5,166.9,69.1c44.6,44.6,69.1,103.8,69.1,166.9c0,63-24.5,122.3-69.1,166.9
		C841.8,573,782.5,597.5,719.5,597.5z"/>
	<path d="M719.5,126c31.8,0,62.6,6.2,91.7,18.5c28,11.9,53.2,28.8,74.9,50.5c21.6,21.6,38.6,46.8,50.5,74.9
		c12.3,29,18.5,59.9,18.5,91.7s-6.2,62.6-18.5,91.7c-11.9,28-28.8,53.2-50.5,74.9c-21.6,21.6-46.8,38.6-74.9,50.5
		c-29,12.3-59.9,18.5-91.7,18.5s-62.6-6.2-91.7-18.5c-28-11.9-53.2-28.8-74.9-50.5c-21.6-21.6-38.6-46.8-50.5-74.9
		c-12.3-29-18.5-59.9-18.5-91.7s6.2-62.6,18.5-91.7c11.9-28,28.8-53.2,50.5-74.9c21.6-21.6,46.8-38.6,74.9-50.5
		C656.9,132.2,687.7,126,719.5,126 M719.5,125C588.9,125,483,230.9,483,361.5S588.9,598,719.5,598S956,492.1,956,361.5
		S850.1,125,719.5,125L719.5,125z"/>
</g>
<g>
	<path class="st0" d="M595.5,301.1h51.7v10.4h-39.3v31.9h36.3v10.3h-36.3v43.5h-12.4V301.1z"/>
	<path class="st0" d="M662.1,296h12.5v101.2h-12.5V296z"/>
	<path class="st0" d="M758.1,362.1c0,25.5-17.7,36.6-34.3,36.6c-18.7,0-33.1-13.7-33.1-35.5c0-23.1,15.1-36.6,34.2-36.6
		C744.7,326.6,758.1,341,758.1,362.1z M703.4,362.8c0,15.1,8.7,26.5,21,26.5c12,0,21-11.3,21-26.8c0-11.7-5.8-26.5-20.7-26.5
		C709.8,336.1,703.4,349.7,703.4,362.8z"/>
	<path class="st0" d="M777.9,328.2l9.1,35.1c2,7.7,3.8,14.8,5.1,21.9h0.4c1.6-7,3.8-14.4,6.1-21.8l11.3-35.2h10.5l10.7,34.5
		c2.6,8.3,4.6,15.5,6.1,22.5h0.4c1.1-7,3-14.3,5.3-22.4l9.8-34.6h12.4l-22.2,69h-11.4l-10.5-32.9c-2.4-7.7-4.4-14.5-6.1-22.7h-0.3
		c-1.7,8.3-3.8,15.4-6.3,22.8l-11.1,32.8h-11.4l-20.8-69H777.9z"/>
</g>
<g>
</g>
<g>
</g>
<g>
</g>
<g>
</g>
<g>
</g>
<g>
</g>
<g>
</g>
<g>
</g>
<g>
</g>
<g>
</g>
<g>
</g>
<g>
</g>
<g>
</g>
<g>
</g>
<g>
</g>
</svg>
