<svg id="Layer_1" data-name="Layer 1" xmlns="http://www.w3.org/2000/svg" viewBox="0 0 473 473"><defs><style>.cls-1{fill:#fff;}</style></defs><path d="M719.5,597.5a235.92,235.92,0,1,1,166.9-69.1A234.49,234.49,0,0,1,719.5,597.5Z" transform="translate(-483 -125)"/><path d="M719.5,126a234.78,234.78,0,1,1-91.7,18.5A234,234,0,0,1,719.5,126m0-1C588.9,125,483,230.9,483,361.5S588.9,598,719.5,598,956,492.1,956,361.5,850.1,125,719.5,125Z" transform="translate(-483 -125)"/><path class="cls-1" d="M560.49,396.52V310.38h12.14L600.23,354a244,244,0,0,1,15.46,28l.26-.13c-1-11.5-1.28-22-1.28-35.4v-36h10.48v86.14H613.91l-27.35-43.71a271.22,271.22,0,0,1-16.1-28.75l-.39.13c.64,10.86.9,21.21.9,35.52v36.81Z" transform="translate(-483 -125)"/><path class="cls-1" d="M678.44,396.52l-.89-7.8h-.39a23,23,0,0,1-18.91,9.2c-12.52,0-18.91-8.82-18.91-17.76,0-15,13.29-23.13,37.18-23v-1.28c0-5.11-1.4-14.31-14-14.31a30.78,30.78,0,0,0-16.11,4.6l-2.55-7.42c5.11-3.32,12.52-5.49,20.32-5.49,18.91,0,23.51,12.91,23.51,25.3v23.13a87.88,87.88,0,0,0,1,14.83ZM676.78,365c-12.27-.25-26.2,1.92-26.2,13.93,0,7.29,4.86,10.74,10.61,10.74a15.39,15.39,0,0,0,14.95-10.36,11.79,11.79,0,0,0,.64-3.57Z" transform="translate(-483 -125)"/><path class="cls-1" d="M718.82,316.9v17.77h16.11v8.56H718.82v33.35c0,7.67,2.18,12,8.44,12a25.27,25.27,0,0,0,6.52-.76l.51,8.43a27.48,27.48,0,0,1-10,1.53c-5.24,0-9.46-1.66-12.14-4.72-3.2-3.33-4.35-8.82-4.35-16.11V343.23h-9.58v-8.56h9.58V319.84Z" transform="translate(-483 -125)"/><path class="cls-1" d="M799.33,379.65c0,6.39.13,12,.51,16.87h-10l-.64-10.1H789a23.25,23.25,0,0,1-20.44,11.5c-9.72,0-21.35-5.37-21.35-27.09V334.67h11.25v34.24c0,11.76,3.58,19.68,13.8,19.68,7.54,0,12.78-5.24,14.83-10.22a16.43,16.43,0,0,0,1-5.75V334.67h11.24Z" transform="translate(-483 -125)"/><path class="cls-1" d="M818,354c0-7.28-.13-13.54-.51-19.29h9.84l.38,12.14h.51c2.82-8.31,9.59-13.55,17.13-13.55a12.35,12.35,0,0,1,3.19.38v10.61a16.65,16.65,0,0,0-3.83-.38c-7.92,0-13.55,6-15.08,14.44a32.2,32.2,0,0,0-.51,5.24v33H818Z" transform="translate(-483 -125)"/><path class="cls-1" d="M864.77,367.64c.25,15.2,10,21.46,21.21,21.46,8,0,12.91-1.4,17.12-3.19l1.92,8c-4,1.79-10.73,3.83-20.57,3.83-19.05,0-30.42-12.52-30.42-31.18s11-33.35,29-33.35c20.19,0,25.56,17.76,25.56,29.14a41.72,41.72,0,0,1-.39,5.24Zm33-8.06c.12-7.15-2.94-18.27-15.59-18.27-11.38,0-16.36,10.48-17.26,18.27Z" transform="translate(-483 -125)"/></svg>