<svg id="Layer_1" data-name="Layer 1" xmlns="http://www.w3.org/2000/svg" viewBox="0 0 473 473"><defs><style>.cls-1{fill:#fff;}</style></defs><path d="M719.5,597.5a235.92,235.92,0,1,1,166.9-69.1A234.49,234.49,0,0,1,719.5,597.5Z" transform="translate(-483 -125)"/><path d="M719.5,126a234.78,234.78,0,1,1-91.7,18.5A234,234,0,0,1,719.5,126m0-1C588.9,125,483,230.9,483,361.5S588.9,598,719.5,598,956,492.1,956,361.5,850.1,125,719.5,125Z" transform="translate(-483 -125)"/><path class="cls-1" d="M601.17,312.68A129.25,129.25,0,0,1,622.51,311c11,0,19,2.56,24.15,7.16,4.73,4.09,7.54,10.35,7.54,18s-2.3,13.93-6.64,18.4c-5.88,6.26-15.47,9.46-26.33,9.46a38.27,38.27,0,0,1-9-.77v34.5H601.17Zm11.11,41.54a37.33,37.33,0,0,0,9.21.89c13.41,0,21.59-6.52,21.59-18.4,0-11.37-8.05-16.87-20.32-16.87a46.11,46.11,0,0,0-10.48.9Z" transform="translate(-483 -125)"/><path class="cls-1" d="M699.7,397.79l-.9-7.79h-.38a23.06,23.06,0,0,1-18.91,9.2c-12.53,0-18.92-8.82-18.92-17.76,0-15,13.29-23.13,37.19-23v-1.27c0-5.12-1.4-14.32-14.06-14.32a30.84,30.84,0,0,0-16.1,4.6L665.07,340c5.11-3.32,12.52-5.49,20.31-5.49,18.92,0,23.52,12.9,23.52,25.3V383a86.65,86.65,0,0,0,1,14.82ZM698,366.23c-12.27-.26-26.2,1.92-26.2,13.93,0,7.28,4.85,10.73,10.61,10.73a15.39,15.39,0,0,0,14.95-10.35A11.85,11.85,0,0,0,698,377Z" transform="translate(-483 -125)"/><path class="cls-1" d="M727.05,355.24c0-7.28-.13-13.55-.52-19.3h9.84l.39,12.14h.51c2.81-8.3,9.58-13.54,17.12-13.54a12,12,0,0,1,3.2.38v10.61a16.63,16.63,0,0,0-3.84-.39c-7.92,0-13.54,6-15.08,14.44a32.43,32.43,0,0,0-.51,5.24v33H727.05Z" transform="translate(-483 -125)"/><path class="cls-1" d="M785.45,318.18v17.76h16.1v8.56h-16.1v33.36c0,7.67,2.17,12,8.43,12a24.75,24.75,0,0,0,6.52-.77l.51,8.44a27.62,27.62,0,0,1-10,1.53c-5.24,0-9.46-1.66-12.14-4.73-3.19-3.32-4.34-8.81-4.34-16.1V344.5h-9.59v-8.56h9.59V321.12Z" transform="translate(-483 -125)"/><path class="cls-1" d="M819.44,335.94,833,372.49c1.41,4.09,2.94,8.95,4,12.65h.26c1.15-3.7,2.43-8.43,4-12.9l12.27-36.3h11.88L848.45,380c-8.06,21.21-13.55,32.08-21.22,38.72a30.53,30.53,0,0,1-13.8,7.29l-2.81-9.46a29.7,29.7,0,0,0,9.84-5.5,34,34,0,0,0,9.46-12.52,8,8,0,0,0,.89-2.68,9.83,9.83,0,0,0-.77-2.94l-22.87-57Z" transform="translate(-483 -125)"/></svg>