<svg id="Layer_1" data-name="Layer 1" xmlns="http://www.w3.org/2000/svg" viewBox="0 0 473 473"><defs><style>.cls-1{fill:#fff;}</style></defs><path d="M719.5,597.5a235.92,235.92,0,1,1,166.9-69.1A234.49,234.49,0,0,1,719.5,597.5Z" transform="translate(-483 -125)"/><path d="M719.5,126a234.78,234.78,0,1,1-91.7,18.5A234,234,0,0,1,719.5,126m0-1C588.9,125,483,230.9,483,361.5S588.9,598,719.5,598,956,492.1,956,361.5,850.1,125,719.5,125Z" transform="translate(-483 -125)"/><path class="cls-1" d="M621.3,314.22a115.75,115.75,0,0,1,21.34-1.79c11.88,0,19.55,2.17,24.92,7,4.34,3.83,6.77,9.71,6.77,16.35,0,11.38-7.16,18.92-16.23,22v.39c6.64,2.3,10.61,8.43,12.65,17.38,2.81,12,4.86,20.32,6.65,23.64H665.9c-1.41-2.43-3.33-9.84-5.75-20.58-2.56-11.88-7.16-16.35-17.26-16.74H632.41V399.2H621.3Zm11.11,39.23h11.38c11.88,0,19.42-6.52,19.42-16.36,0-11.12-8.05-16-19.81-16.1a45.89,45.89,0,0,0-11,1Z" transform="translate(-483 -125)"/><path class="cls-1" d="M725.45,399.2l-.9-7.8h-.38a23,23,0,0,1-18.92,9.2c-12.52,0-18.91-8.81-18.91-17.76,0-14.95,13.29-23.13,37.19-23v-1.28c0-5.11-1.41-14.31-14.06-14.31a30.84,30.84,0,0,0-16.1,4.6l-2.56-7.41c5.12-3.33,12.53-5.5,20.32-5.5,18.92,0,23.52,12.91,23.52,25.3v23.13a86.85,86.85,0,0,0,1,14.83Zm-1.66-31.57c-12.27-.25-26.2,1.92-26.2,13.93,0,7.29,4.85,10.74,10.6,10.74a15.39,15.39,0,0,0,15-10.35,11.85,11.85,0,0,0,.64-3.58Z" transform="translate(-483 -125)"/><path class="cls-1" d="M765.32,320c.13,3.83-2.69,6.9-7.16,6.9a6.69,6.69,0,0,1-6.77-6.9,6.86,6.86,0,0,1,7-7A6.68,6.68,0,0,1,765.32,320ZM752.79,399.2V337.35H764V399.2Z" transform="translate(-483 -125)"/><path class="cls-1" d="M782.7,354.09c0-6.39-.13-11.63-.51-16.74h10l.64,10.22h.26c3.07-5.88,10.22-11.63,20.45-11.63,8.56,0,21.85,5.11,21.85,26.33V399.2H824.1V363.54c0-10-3.7-18.27-14.31-18.27a16,16,0,0,0-15.08,11.5,16.21,16.21,0,0,0-.77,5.24V399.2H782.7Z" transform="translate(-483 -125)"/></svg>