<?xml version="1.0" encoding="utf-8"?>
<!-- Generator: Adobe Illustrator 24.3.0, SVG Export Plug-In . SVG Version: 6.00 Build 0)  -->
<svg version="1.0" id="Layer_1" xmlns="http://www.w3.org/2000/svg" xmlns:xlink="http://www.w3.org/1999/xlink" x="0px" y="0px"
	 viewBox="0 0 1366 768" style="enable-background:new 0 0 1366 768;" xml:space="preserve">
<style type="text/css">
	.st0{fill:#FFFFFF;}
</style>
<g>
	<path d="M719.5,597.5c-63,0-122.3-24.5-166.9-69.1c-44.6-44.6-69.1-103.8-69.1-166.9c0-63,24.5-122.3,69.1-166.9
		c44.6-44.6,103.8-69.1,166.9-69.1c63,0,122.3,24.5,166.9,69.1c44.6,44.6,69.1,103.8,69.1,166.9c0,63-24.5,122.3-69.1,166.9
		C841.8,573,782.5,597.5,719.5,597.5z"/>
	<path d="M719.5,126c31.8,0,62.6,6.2,91.7,18.5c28,11.9,53.2,28.8,74.9,50.5c21.6,21.6,38.6,46.8,50.5,74.9
		c12.3,29,18.5,59.9,18.5,91.7s-6.2,62.6-18.5,91.7c-11.9,28-28.8,53.2-50.5,74.9c-21.6,21.6-46.8,38.6-74.9,50.5
		c-29,12.3-59.9,18.5-91.7,18.5s-62.6-6.2-91.7-18.5c-28-11.9-53.2-28.8-74.9-50.5c-21.6-21.6-38.6-46.8-50.5-74.9
		c-12.3-29-18.5-59.9-18.5-91.7s6.2-62.6,18.5-91.7c11.9-28,28.8-53.2,50.5-74.9c21.6-21.6,46.8-38.6,74.9-50.5
		C656.9,132.2,687.7,126,719.5,126 M719.5,125C588.9,125,483,230.9,483,361.5S588.9,598,719.5,598S956,492.1,956,361.5
		S850.1,125,719.5,125L719.5,125z"/>
</g>
<g>
	<path class="st0" d="M578.8,382.1c5.6,3.4,13.7,6.3,22.2,6.3c12.7,0,20.1-6.7,20.1-16.4c0-9-5.1-14.1-18.1-19.1
		c-15.7-5.6-25.4-13.7-25.4-27.2c0-15,12.4-26.1,31.1-26.1c9.8,0,17,2.3,21.2,4.7l-3.4,10.1c-3.1-1.7-9.5-4.6-18.2-4.6
		c-13.1,0-18.1,7.8-18.1,14.4c0,9,5.8,13.4,19.1,18.5c16.2,6.3,24.5,14.1,24.5,28.2c0,14.8-11,27.6-33.6,27.6
		c-9.3,0-19.4-2.7-24.5-6.1L578.8,382.1z"/>
	<path class="st0" d="M650.4,350.7c0-8.8-0.3-16-0.6-22.5H661l0.6,11.8h0.3c5.1-8.4,13.3-13.4,24.5-13.4c16.7,0,29.2,14.1,29.2,35.1
		c0,24.8-15.1,37.1-31.4,37.1c-9.1,0-17.1-4-21.2-10.8h-0.3v37.5h-12.4V350.7z M662.8,369.1c0,1.9,0.3,3.6,0.6,5.1
		c2.3,8.7,9.8,14.7,18.8,14.7c13.3,0,21-10.8,21-26.7c0-13.8-7.3-25.7-20.5-25.7c-8.6,0-16.5,6.1-19,15.5c-0.4,1.6-0.9,3.4-0.9,5.1
		V369.1z"/>
	<path class="st0" d="M745.4,308.8c0.1,4.3-3,7.7-8,7.7c-4.4,0-7.6-3.4-7.6-7.7c0-4.4,3.3-7.8,7.8-7.8
		C742.4,301,745.4,304.4,745.4,308.8z M731.4,397.2v-69H744v69H731.4z"/>
	<path class="st0" d="M764.8,349.7c0-8.1-0.1-15.1-0.6-21.5h11l0.4,13.5h0.6c3.1-9.3,10.7-15.1,19.1-15.1c1.4,0,2.4,0.1,3.6,0.4
		v11.8c-1.3-0.3-2.6-0.4-4.3-0.4c-8.8,0-15.1,6.7-16.8,16.1c-0.3,1.7-0.6,3.7-0.6,5.8v36.8h-12.4V349.7z"/>
	<path class="st0" d="M825.9,308.8c0.1,4.3-3,7.7-8,7.7c-4.4,0-7.6-3.4-7.6-7.7c0-4.4,3.3-7.8,7.8-7.8
		C822.9,301,825.9,304.4,825.9,308.8z M812,397.2v-69h12.5v69H812z"/>
	<path class="st0" d="M860.4,308.4v19.8h18v9.5h-18V375c0,8.6,2.4,13.4,9.4,13.4c3.3,0,5.7-0.4,7.3-0.9l0.6,9.4
		c-2.4,1-6.3,1.7-11.1,1.7c-5.8,0-10.5-1.9-13.5-5.3c-3.6-3.7-4.8-9.8-4.8-18v-37.6h-10.7v-9.5h10.7v-16.5L860.4,308.4z"/>
</g>
<g>
</g>
<g>
</g>
<g>
</g>
<g>
</g>
<g>
</g>
<g>
</g>
<g>
</g>
<g>
</g>
<g>
</g>
<g>
</g>
<g>
</g>
<g>
</g>
<g>
</g>
<g>
</g>
<g>
</g>
</svg>
