<?xml version="1.0" encoding="utf-8"?>
<!-- Generator: Adobe Illustrator 24.3.0, SVG Export Plug-In . SVG Version: 6.00 Build 0)  -->
<svg version="1.0" id="Layer_1" xmlns="http://www.w3.org/2000/svg" xmlns:xlink="http://www.w3.org/1999/xlink" x="0px" y="0px"
	 viewBox="0 0 1366 768" style="enable-background:new 0 0 1366 768;" xml:space="preserve">
<style type="text/css">
	.st0{fill:#FFFFFF;}
</style>
<g>
	<path d="M719.5,597.5c-63,0-122.3-24.5-166.9-69.1c-44.6-44.6-69.1-103.8-69.1-166.9c0-63,24.5-122.3,69.1-166.9
		c44.6-44.6,103.8-69.1,166.9-69.1c63,0,122.3,24.5,166.9,69.1c44.6,44.6,69.1,103.8,69.1,166.9c0,63-24.5,122.3-69.1,166.9
		C841.8,573,782.5,597.5,719.5,597.5z"/>
	<path d="M719.5,126c31.8,0,62.6,6.2,91.7,18.5c28,11.9,53.2,28.8,74.9,50.5c21.6,21.6,38.6,46.8,50.5,74.9
		c12.3,29,18.5,59.9,18.5,91.7s-6.2,62.6-18.5,91.7c-11.9,28-28.8,53.2-50.5,74.9c-21.6,21.6-46.8,38.6-74.9,50.5
		c-29,12.3-59.9,18.5-91.7,18.5s-62.6-6.2-91.7-18.5c-28-11.9-53.2-28.8-74.9-50.5c-21.6-21.6-38.6-46.8-50.5-74.9
		c-12.3-29-18.5-59.9-18.5-91.7s6.2-62.6,18.5-91.7c11.9-28,28.8-53.2,50.5-74.9c21.6-21.6,46.8-38.6,74.9-50.5
		C656.9,132.2,687.7,126,719.5,126 M719.5,125C588.9,125,483,230.9,483,361.5S588.9,598,719.5,598S956,492.1,956,361.5
		S850.1,125,719.5,125L719.5,125z"/>
</g>
<g>
	<path class="st0" d="M583.8,310.7h-29.2v-10.5h71.1v10.5h-29.4v85.5h-12.5V310.7z"/>
	<path class="st0" d="M648.2,307.8c0.1,4.3-3,7.7-8,7.7c-4.4,0-7.6-3.4-7.6-7.7c0-4.4,3.3-7.8,7.8-7.8
		C645.2,300,648.2,303.4,648.2,307.8z M634.2,396.2v-69h12.5v69H634.2z"/>
	<path class="st0" d="M667.6,345.9c0-7.1-0.1-13-0.6-18.7h11l0.6,11.1h0.4c3.8-6.6,10.3-12.7,21.7-12.7c9.4,0,16.5,5.7,19.5,13.8
		h0.3c2.1-3.8,4.8-6.8,7.7-9c4.1-3.1,8.7-4.8,15.2-4.8c9.1,0,22.7,6,22.7,29.9v40.6h-12.3v-39c0-13.3-4.8-21.2-15-21.2
		c-7.1,0-12.7,5.3-14.8,11.4c-0.6,1.7-1,4-1,6.3v42.6h-12.3v-41.3c0-11-4.8-19-14.4-19c-7.8,0-13.5,6.3-15.5,12.5
		c-0.7,1.9-1,4-1,6.1v41.6h-12.3V345.9z"/>
	<path class="st0" d="M793.4,364c0.3,17,11.1,23.9,23.7,23.9c9,0,14.4-1.6,19.1-3.6l2.1,9c-4.4,2-12,4.3-22.9,4.3
		c-21.2,0-33.9-14-33.9-34.8c0-20.8,12.3-37.2,32.4-37.2c22.5,0,28.5,19.8,28.5,32.5c0,2.6-0.3,4.6-0.4,5.8H793.4z M830.2,355
		c0.1-8-3.3-20.4-17.4-20.4c-12.7,0-18.2,11.7-19.2,20.4H830.2z"/>
	<path class="st0" d="M856.1,383.4c3.7,2.4,10.3,5,16.5,5c9.1,0,13.4-4.6,13.4-10.3c0-6-3.6-9.3-12.8-12.7
		c-12.4-4.4-18.2-11.3-18.2-19.5c0-11.1,9-20.2,23.8-20.2c7,0,13.1,2,17,4.3l-3.1,9.1c-2.7-1.7-7.7-4-14.1-4
		c-7.4,0-11.5,4.3-11.5,9.4c0,5.7,4.1,8.3,13.1,11.7c12,4.6,18.1,10.5,18.1,20.8c0,12.1-9.4,20.7-25.8,20.7
		c-7.6,0-14.5-1.9-19.4-4.7L856.1,383.4z"/>
</g>
<g>
</g>
<g>
</g>
<g>
</g>
<g>
</g>
<g>
</g>
<g>
</g>
<g>
</g>
<g>
</g>
<g>
</g>
<g>
</g>
<g>
</g>
<g>
</g>
<g>
</g>
<g>
</g>
<g>
</g>
</svg>
