<svg id="Layer_1" data-name="Layer 1" xmlns="http://www.w3.org/2000/svg" viewBox="0 0 143.89 28.8"><path d="M31.27,82.85a41.41,41.41,0,0,1,6.08-.45c4.1,0,7,.95,9,2.75a10.21,10.21,0,0,1,3.12,7.95,11.68,11.68,0,0,1-3.18,8.6c-2.07,2.07-5.49,3.19-9.79,3.19a47.38,47.38,0,0,1-5.19-.26Zm2.86,19.58a18.22,18.22,0,0,0,2.89.16c6.11,0,9.42-3.42,9.42-9.39,0-5.22-2.92-8.54-9-8.54a15.8,15.8,0,0,0-3.35.3Z" transform="translate(-31.27 -82.4)"/><path d="M53,93.76c0-1.88,0-3.48-.13-5h2.53l.1,3.12h.13a4.76,4.76,0,0,1,4.4-3.48,2.92,2.92,0,0,1,.82.1v2.72a4.62,4.62,0,0,0-1-.1c-2,0-3.48,1.55-3.88,3.71a9,9,0,0,0-.13,1.35v8.47H53Z" transform="translate(-31.27 -82.4)"/><path d="M77.84,96.61c0,5.88-4.08,8.44-7.92,8.44-4.3,0-7.62-3.15-7.62-8.17,0-5.32,3.48-8.44,7.88-8.44C74.75,88.44,77.84,91.75,77.84,96.61Zm-12.61.17c0,3.48,2,6.11,4.82,6.11s4.83-2.6,4.83-6.18c0-2.69-1.35-6.11-4.76-6.11S65.23,93.76,65.23,96.78Z" transform="translate(-31.27 -82.4)"/><path d="M81.48,94c0-2-.07-3.68-.13-5.19h2.59l.13,2.72h.07a6.25,6.25,0,0,1,5.65-3.08c3.84,0,6.73,3.25,6.73,8.08,0,5.71-3.48,8.53-7.23,8.53a5.58,5.58,0,0,1-4.89-2.49h-.06v8.63H81.48Zm2.86,4.23a6.09,6.09,0,0,0,.13,1.18,4.45,4.45,0,0,0,4.33,3.39c3.06,0,4.83-2.5,4.83-6.14,0-3.19-1.68-5.91-4.73-5.91a4.61,4.61,0,0,0-4.37,3.57,5.19,5.19,0,0,0-.19,1.19Z" transform="translate(-31.27 -82.4)"/><path d="M110.08,82.56v9.26h10.71V82.56h2.88v22.13h-2.88V94.31H110.08v10.38h-2.86V82.56Z" transform="translate(-31.27 -82.4)"/><path d="M130.14,97.27c.07,3.91,2.56,5.52,5.45,5.52A10.43,10.43,0,0,0,140,102l.5,2.07a13.08,13.08,0,0,1-5.29,1c-4.89,0-7.82-3.22-7.82-8s2.83-8.57,7.46-8.57c5.19,0,6.57,4.56,6.57,7.48a11.42,11.42,0,0,1-.1,1.35Zm8.48-2.07c0-1.84-.76-4.69-4-4.69-2.92,0-4.2,2.69-4.43,4.69Z" transform="translate(-31.27 -82.4)"/><path d="M145,93.76c0-1.88,0-3.48-.13-5h2.53l.1,3.12h.13a4.76,4.76,0,0,1,4.4-3.48,2.92,2.92,0,0,1,.82.1v2.72a4.62,4.62,0,0,0-1-.1c-2,0-3.48,1.55-3.88,3.71a9,9,0,0,0-.13,1.35v8.47H145Z" transform="translate(-31.27 -82.4)"/><path d="M157,97.27c.07,3.91,2.56,5.52,5.45,5.52a10.43,10.43,0,0,0,4.4-.82l.5,2.07a13.08,13.08,0,0,1-5.29,1c-4.89,0-7.82-3.22-7.82-8s2.83-8.57,7.46-8.57c5.19,0,6.57,4.56,6.57,7.48a11.42,11.42,0,0,1-.1,1.35Zm8.47-2.07c0-1.84-.75-4.69-4-4.69-2.92,0-4.21,2.69-4.43,4.69Z" transform="translate(-31.27 -82.4)"/><path d="M171.29,103a1.92,1.92,0,0,1,1.93-2,2,2,0,0,1,0,4.07A1.91,1.91,0,0,1,171.29,103Zm.82-4.7-.46-15.76h3.15l-.46,15.76Z" transform="translate(-31.27 -82.4)"/></svg>